<svg width="60" height="60" viewBox="0 0 60 60" fill="none" xmlns="http://www.w3.org/2000/svg">
<rect width="60" height="60" fill="white"/>
<path d="M15.448 41.856C15.288 41.856 15.208 41.776 15.208 41.616V33.024H8.392C8.2 33.024 8.104 32.944 8.104 32.784V28.992C8.104 28.96 8.12 28.912 8.152 28.848C8.216 28.752 8.296 28.704 8.392 28.704H15.208V19.968C15.208 19.904 15.288 19.872 15.448 19.872H19.48C19.608 19.872 19.672 19.904 19.672 19.968V28.704H26.824C26.984 28.704 27.064 28.8 27.064 28.992V32.784C27.064 32.848 27.032 32.912 26.968 32.976C26.904 33.008 26.856 33.024 26.824 33.024H19.672V41.616C19.672 41.776 19.608 41.856 19.48 41.856H15.448ZM27.7544 48C27.5944 48 27.5304 47.92 27.5624 47.76L33.5144 14.784C33.5464 14.656 33.6264 14.592 33.7544 14.592H38.7464C38.9064 14.592 38.9704 14.656 38.9384 14.784L32.8904 47.76C32.8584 47.92 32.7784 48 32.6504 48H27.7544ZM40.5621 34.128C40.4021 34.128 40.3221 34.064 40.3221 33.936V28.704C40.3221 28.576 40.4021 28.512 40.5621 28.512H49.8261C49.9861 28.512 50.0661 28.576 50.0661 28.704V33.936C50.0661 34.064 49.9861 34.128 49.8261 34.128H40.5621Z" fill="black"/>
</svg>
